#define comp150_width 24
#define comp150_height 19
static unsigned char comp150_bits[] = {
   0xff, 0xff, 0xff, 0x01, 0x00, 0x80, 0x01, 0x00, 0x80, 0x01, 0x00, 0x80,
   0x01, 0x00, 0x80, 0x01, 0x00, 0x80, 0xc1, 0xff, 0xff, 0x41, 0x00, 0x80,
   0x41, 0x00, 0x80, 0x41, 0x00, 0x80, 0x41, 0xf0, 0xff, 0x41, 0x10, 0x80,
   0x41, 0x10, 0x80, 0x41, 0x10, 0x80, 0x41, 0x10, 0x80, 0x41, 0x10, 0x80,
   0x41, 0x10, 0x80, 0x41, 0x10, 0x80, 0xff, 0xff, 0xff};
