#define comp125_width 20
#define comp125_height 16
static unsigned char comp125_bits[] = {
   0xff, 0xff, 0x0f, 0x01, 0x00, 0x08, 0x01, 0x00, 0x08, 0x01, 0x00, 0x08,
   0x01, 0x00, 0x08, 0xe1, 0xff, 0x0f, 0x21, 0x00, 0x08, 0x21, 0x00, 0x08,
   0x21, 0x00, 0x08, 0x21, 0xfc, 0x0f, 0x21, 0x04, 0x08, 0x21, 0x04, 0x08,
   0x21, 0x04, 0x08, 0x21, 0x04, 0x08, 0x21, 0x04, 0x08, 0xff, 0xff, 0x0f};
