#define comp100_width 16
#define comp100_height 13
static unsigned char comp100_bits[] = {
   0xff, 0xff, 0x01, 0x80, 0x01, 0x80, 0x01, 0x80, 0xf1, 0xff, 0x11, 0x80,
   0x11, 0x80, 0x11, 0xff, 0x11, 0x81, 0x11, 0x81, 0x11, 0x81, 0x11, 0x81,
   0xff, 0xff};
