#define leaf175_width 28
#define leaf175_height 23
static unsigned char leaf175_bits[] = {
   0xff, 0xff, 0xff, 0x0f, 0x01, 0x00, 0x00, 0x08, 0x01, 0x00, 0x00, 0x08,
   0x01, 0x00, 0x00, 0x08, 0x01, 0x00, 0x00, 0x08, 0x01, 0x00, 0x00, 0x08,
   0x01, 0x00, 0x00, 0x08, 0x01, 0x00, 0x00, 0x08, 0x01, 0x00, 0x00, 0x08,
   0x01, 0x00, 0x00, 0x08, 0x01, 0x00, 0x00, 0x08, 0x01, 0x00, 0x00, 0x08,
   0x01, 0x00, 0x00, 0x08, 0x01, 0x00, 0x00, 0x08, 0x01, 0x00, 0x00, 0x08,
   0x01, 0x00, 0x00, 0x08, 0x01, 0x00, 0x00, 0x08, 0x01, 0x00, 0x00, 0x08,
   0x01, 0x00, 0x00, 0x08, 0x01, 0x00, 0x00, 0x08, 0x01, 0x00, 0x00, 0x08,
   0x01, 0x00, 0x00, 0x08, 0xff, 0xff, 0xff, 0x0f};
