#define leaf150_width 24
#define leaf150_height 19
static unsigned char leaf150_bits[] = {
   0xff, 0xff, 0xff, 0x01, 0x00, 0x80, 0x01, 0x00, 0x80, 0x01, 0x00, 0x80,
   0x01, 0x00, 0x80, 0x01, 0x00, 0x80, 0x01, 0x00, 0x80, 0x01, 0x00, 0x80,
   0x01, 0x00, 0x80, 0x01, 0x00, 0x80, 0x01, 0x00, 0x80, 0x01, 0x00, 0x80,
   0x01, 0x00, 0x80, 0x01, 0x00, 0x80, 0x01, 0x00, 0x80, 0x01, 0x00, 0x80,
   0x01, 0x00, 0x80, 0x01, 0x00, 0x80, 0xff, 0xff, 0xff};
